<svg xmlns="http://www.w3.org/2000/svg" viewBox="0 0 399.3 257.14"><g id="Layer_2" data-name="Layer 2"><g id="Layer_1-2" data-name="Layer 1"><path d="M205.87,66.27c-2,.15-4,.3-6,.43l-.24,24.81c.48,21.33-7.27,33.29-25.41,33.88H0V129H192c10.11-8.58,15.66-20.9,13.75-39.33Z"/><path d="M228.55.12c-15.08-1.12-25.14,5.25-28.24,22l-.43,45,5.28.28.66-.07.33-46.41c3.29-10.32,11.27-14.4,22.4-14L399.3,6.23V0Z"/><path d="M205.87,190.87l-6-.42-.24-24.81c.48-21.34-7.27-33.3-25.41-33.88H0v-3.63H192c10.11,8.58,15.66,20.9,13.75,39.32Z"/><path d="M228.55,257c-15.08,1.12-25.14-5.25-28.24-22l-.43-45,5.28-.27.66.07.33,46.41c3.29,10.31,11.27,14.39,22.4,14l170.75.61v6.23Z"/></g></g></svg>