<svg xmlns="http://www.w3.org/2000/svg" viewBox="0 0 221.39 130.99"><g id="Layer_2" data-name="Layer 2"><g id="Layer_1-2" data-name="Layer 1"><path d="M0,0C5,12.18,15.75,19.29,32.18,20.58h139C190,23,200.28,34.65,199.88,57.71v60.23l-12.13-17.57-4.52,2.51L199.88,131h2.94V58.22l-2.94-27.1c-4.51-9-12.94-15.28-27.68-16.06H31.68C18.76,14.8,10.73,9.62,7.09,0Z"/><path d="M204.74,117.94V57.71c0-1.68,0-3.3.09-4.86a5.78,5.78,0,0,1-2.12-3l-.9,8.34V131h2.93l16.64-28.11-4.52-2.51Z"/><path d="M199.88,31.12c2.54,2.68,4.08,10.5,5,21.73H201c-.28-7.84-1.37-15.14-4-21.38Z"/></g></g></svg>