<?xml version="1.0" standalone="no"?>
<!DOCTYPE svg PUBLIC "-//W3C//DTD SVG 20010904//EN"
 "http://www.w3.org/TR/2001/REC-SVG-20010904/DTD/svg10.dtd">
<svg version="1.0" xmlns="http://www.w3.org/2000/svg"
 width="361.000000pt" height="361.000000pt" viewBox="0 0 361.000000 361.000000"
 preserveAspectRatio="xMidYMid meet">
<metadata>
Created by potrace 1.14, written by Peter Selinger 2001-2017
</metadata>
<g transform="translate(0.000000,361.000000) scale(0.100000,-0.100000)"
fill="#000000" stroke="none">
<path d="M1517 3590 c-59 -10 -116 -21 -125 -25 -9 -4 -28 -9 -42 -11 -71 -13
-330 -111 -330 -126 0 -5 -4 -7 -9 -4 -5 3 -21 -4 -37 -17 -16 -12 -30 -20
-31 -17 -1 3 -11 -2 -21 -10 -10 -8 -25 -16 -33 -18 -8 -2 -20 -10 -26 -19 -7
-9 -13 -13 -13 -9 0 7 -81 -45 -110 -71 -8 -7 -45 -37 -82 -65 -38 -29 -68
-59 -68 -66 0 -7 -4 -11 -9 -8 -12 8 -43 -29 -34 -39 5 -4 3 -5 -3 -2 -13 7
-88 -66 -78 -76 4 -4 0 -7 -9 -7 -10 0 -17 -7 -17 -15 0 -8 -4 -15 -8 -15 -10
0 -138 -170 -134 -177 2 -3 0 -9 -5 -12 -14 -9 -93 -145 -93 -159 0 -7 -4 -12
-10 -12 -5 0 -10 -8 -10 -18 0 -10 -4 -22 -9 -27 -12 -13 -61 -135 -54 -135 3
0 0 -6 -6 -14 -7 -8 -14 -22 -16 -32 -3 -11 -18 -68 -34 -127 -29 -106 -35
-137 -48 -262 -17 -148 -6 -399 23 -530 8 -38 17 -81 20 -95 20 -99 146 -410
166 -410 5 0 7 -4 4 -8 -3 -5 4 -21 15 -38 11 -16 27 -44 35 -61 9 -18 20 -33
25 -33 5 0 9 -5 9 -10 0 -15 80 -120 92 -120 5 0 7 -4 4 -9 -4 -5 7 -20 23
-34 17 -14 28 -27 26 -29 -6 -5 171 -176 209 -203 16 -11 36 -28 45 -37 8 -10
21 -18 27 -18 7 0 14 -4 16 -9 4 -10 115 -82 124 -80 4 0 10 -4 13 -9 17 -28
339 -171 416 -185 11 -2 27 -7 35 -10 16 -6 97 -24 145 -32 17 -3 41 -7 54
-10 39 -7 190 -18 261 -18 126 -1 344 22 390 40 8 4 18 6 21 5 4 -1 22 3 40 9
19 6 58 17 87 24 28 8 69 22 90 31 20 9 43 18 51 20 29 6 261 127 261 136 0 5
5 6 10 3 6 -3 13 1 16 9 3 9 10 14 14 11 4 -3 19 7 34 22 14 14 26 23 26 19 0
-14 149 112 240 203 105 105 203 225 193 235 -3 3 -2 6 4 6 16 0 126 176 122
196 0 4 3 10 8 13 16 11 86 171 75 171 -4 0 -2 4 4 8 11 7 45 100 49 132 1 8
5 22 8 30 5 14 30 108 32 120 1 3 5 30 9 60 5 30 10 64 13 75 12 48 10 366 -2
451 -20 144 -44 251 -72 324 -3 8 -7 21 -9 28 -1 8 -6 21 -10 30 -4 9 -8 23
-10 30 -10 51 -170 352 -186 352 -4 0 -8 7 -8 15 0 9 -7 18 -15 21 -8 4 -13 9
-10 13 2 5 -11 24 -29 44 -19 21 -31 37 -29 37 3 0 -10 17 -28 38 -18 20 -37
36 -42 34 -5 -1 -6 1 -3 6 5 8 -155 172 -168 172 -3 0 -16 10 -29 23 -41 39
-65 56 -71 50 -3 -4 -6 -2 -6 4 0 11 -103 83 -119 83 -5 0 -11 4 -13 9 -4 12
-158 94 -158 84 0 -4 -4 -3 -8 4 -8 13 -136 66 -227 93 -98 30 -225 58 -310
69 -129 16 -395 11 -518 -9z"/>
</g>
</svg>
